<?xml version="1.0" encoding="UTF-8"?>
<svg xmlns="http://www.w3.org/2000/svg" xmlns:xlink="http://www.w3.org/1999/xlink" width="150px" height="100px" viewBox="0 0 150 100" version="1.1">
<g id="surface1">
<path style=" stroke:none;fill-rule:nonzero;fill:rgb(0%,0%,0%);fill-opacity:1;" d="M 81.320312 33.015625 C 81.691406 33.078125 82.0625 33.140625 82.449219 33.203125 C 83.25 33.339844 84.050781 33.476562 84.851562 33.613281 C 86.113281 33.828125 87.378906 34.042969 88.644531 34.253906 C 90.179688 34.511719 91.714844 34.773438 93.253906 35.035156 C 96.121094 35.519531 98.996094 36 101.867188 36.480469 C 102.078125 36.515625 102.289062 36.550781 102.503906 36.585938 C 103.535156 36.757812 104.566406 36.929688 105.597656 37.101562 C 107.511719 37.417969 109.425781 37.738281 111.335938 38.054688 C 111.976562 38.164062 112.613281 38.269531 113.253906 38.375 C 113.515625 38.417969 113.777344 38.460938 114.046875 38.507812 C 114.320312 38.554688 114.320312 38.554688 114.601562 38.601562 C 114.699219 38.929688 114.796875 39.261719 114.898438 39.601562 C 112.984375 40.046875 111.058594 40.414062 109.085938 40.738281 C 108.820312 40.78125 108.554688 40.828125 108.28125 40.875 C 108.023438 40.917969 107.769531 40.957031 107.503906 41.003906 C 107.277344 41.039062 107.046875 41.078125 106.808594 41.117188 C 106.199219 41.199219 106.199219 41.199219 105.300781 41.199219 C 105.328125 42.5 105.359375 43.796875 105.394531 45.097656 C 105.40625 45.539062 105.417969 45.980469 105.425781 46.425781 C 105.441406 47.058594 105.457031 47.695312 105.476562 48.328125 C 105.480469 48.625 105.480469 48.625 105.484375 48.929688 C 105.496094 49.207031 105.496094 49.207031 105.503906 49.488281 C 105.511719 49.730469 105.511719 49.730469 105.515625 49.980469 C 105.566406 50.460938 105.566406 50.460938 106.199219 51 C 106.269531 51.4375 106.269531 51.4375 106.257812 51.914062 C 106.253906 52.148438 106.253906 52.148438 106.25 52.386719 C 106.199219 52.800781 106.199219 52.800781 105.898438 53.199219 C 105.007812 53.199219 104.117188 53.199219 103.199219 53.199219 C 103.199219 52.34375 103.199219 51.484375 103.199219 50.601562 C 103.398438 50.601562 103.597656 50.601562 103.800781 50.601562 C 103.800781 47.628906 103.800781 44.660156 103.800781 41.601562 C 101.570312 41.992188 101.570312 41.992188 99.339844 42.390625 C 99.0625 42.4375 98.785156 42.488281 98.496094 42.539062 C 98.214844 42.585938 97.929688 42.636719 97.636719 42.691406 C 96.898438 42.800781 96.898438 42.800781 96 42.800781 C 96 44.515625 96 46.230469 96 48 C 94.316406 48.222656 94.316406 48.222656 93.1875 48.023438 C 92.9375 47.980469 92.6875 47.9375 92.433594 47.890625 C 92.167969 47.84375 91.902344 47.796875 91.632812 47.75 C 86.832031 46.945312 82.042969 46.503906 77.101562 46.398438 C 76.753906 46.390625 76.40625 46.382812 76.046875 46.375 C 69.527344 46.296875 62.660156 46.710938 56.429688 48.042969 C 55.5 48.199219 55.5 48.199219 54 48 C 54 46.679688 54 45.359375 54 44 C 58.160156 43.0625 62.265625 42.285156 66.601562 41.800781 C 66.980469 41.757812 67.359375 41.714844 67.75 41.671875 C 69.554688 41.484375 71.351562 41.367188 73.175781 41.289062 C 73.382812 41.28125 73.585938 41.273438 73.796875 41.261719 C 74.300781 41.242188 74.800781 41.222656 75.300781 41.199219 C 68.621094 41.277344 62.117188 41.394531 55.664062 42.664062 C 53.21875 42.972656 50.738281 42.378906 48.378906 41.976562 C 48.015625 41.914062 47.65625 41.851562 47.28125 41.789062 C 46.328125 41.625 45.375 41.464844 44.421875 41.300781 C 43.449219 41.132812 42.472656 40.96875 41.5 40.804688 C 40.761719 40.675781 40.023438 40.550781 39.285156 40.425781 C 38.933594 40.367188 38.582031 40.304688 38.222656 40.246094 C 37.898438 40.1875 37.578125 40.132812 37.246094 40.078125 C 36.960938 40.027344 36.675781 39.980469 36.382812 39.929688 C 35.699219 39.800781 35.699219 39.800781 35.101562 39.601562 C 35.101562 39.335938 35.101562 39.070312 35.101562 38.800781 C 38.578125 38.148438 42.066406 37.523438 45.570312 36.933594 C 46.039062 36.855469 46.511719 36.777344 46.980469 36.695312 C 48.210938 36.488281 49.441406 36.28125 50.671875 36.074219 C 52.128906 35.828125 53.585938 35.582031 55.042969 35.335938 C 56.246094 35.132812 57.449219 34.933594 58.65625 34.730469 C 60.859375 34.363281 63.0625 33.992188 65.253906 33.601562 C 66.234375 33.429688 67.214844 33.257812 68.195312 33.089844 C 68.65625 33.007812 69.117188 32.925781 69.578125 32.84375 C 73.808594 32.074219 77.082031 32.28125 81.320312 33.015625 Z M 81.320312 33.015625 "/>
<path style=" stroke:none;fill-rule:nonzero;fill:rgb(0.392157%,0.392157%,0.392157%);fill-opacity:1;" d="M 103.070312 55.136719 C 105.007812 55.921875 106.347656 57.054688 107.195312 58.449219 C 107.578125 59.847656 107.355469 61.171875 106.308594 62.421875 C 105.082031 63.554688 103.414062 64.417969 101.398438 64.800781 C 98.75 64.996094 96.632812 64.785156 94.5 63.691406 C 92.9375 62.742188 92.21875 61.820312 92.015625 60.421875 C 91.945312 58.882812 92.265625 57.777344 93.507812 56.460938 C 95.972656 54.816406 99.777344 54.09375 103.070312 55.136719 Z M 95.605469 57.703125 C 94.6875 58.621094 94.5625 59.523438 94.800781 60.601562 C 95.347656 61.65625 96.183594 62.160156 97.5 62.800781 C 98.996094 63.132812 100.289062 63.121094 101.757812 62.773438 C 102.921875 62.257812 103.765625 61.644531 104.398438 60.800781 C 104.5625 59.808594 104.570312 59.027344 103.894531 58.125 C 102.949219 57.410156 101.941406 56.664062 100.460938 56.550781 C 98.433594 56.511719 97.007812 56.628906 95.605469 57.703125 Z M 95.605469 57.703125 "/>
<path style=" stroke:none;fill-rule:nonzero;fill:rgb(0.392157%,0.392157%,0.392157%);fill-opacity:1;" d="M 86.0625 55.101562 C 87.859375 55.722656 88.960938 56.710938 89.980469 57.851562 C 90.601562 59.308594 90.636719 60.679688 89.679688 62.074219 C 88.660156 63.269531 87.203125 64.214844 85.242188 64.707031 C 83.035156 65.03125 80.75 65.019531 78.789062 64.222656 C 78.628906 64.148438 78.46875 64.074219 78.300781 64 C 78.035156 63.894531 77.769531 63.785156 77.492188 63.675781 C 75.855469 62.550781 75.203125 61.359375 75.113281 59.800781 C 75.207031 58.292969 75.730469 57.089844 77.382812 56.023438 C 79.910156 54.695312 82.988281 54.304688 86.0625 55.101562 Z M 79.199219 57.398438 C 78.28125 58.171875 77.730469 59.011719 77.699219 60 C 78.074219 61.121094 78.761719 61.859375 80.101562 62.601562 C 81.386719 63.105469 82.539062 63.105469 84 63 C 85.582031 62.636719 86.339844 62.078125 87.300781 61.199219 C 87.796875 60.203125 87.78125 59.339844 87.261719 58.363281 C 86.484375 57.585938 85.566406 57.023438 84.300781 56.601562 C 82.253906 56.449219 80.835938 56.550781 79.199219 57.398438 Z M 79.199219 57.398438 "/>
<path style=" stroke:none;fill-rule:nonzero;fill:rgb(0.392157%,0.392157%,0.392157%);fill-opacity:1;" d="M 60.898438 54.800781 C 61.789062 54.800781 62.683594 54.800781 63.601562 54.800781 C 63.699219 56.121094 63.796875 57.441406 63.898438 58.800781 C 65.980469 58.800781 68.058594 58.800781 70.199219 58.800781 C 70.199219 57.480469 70.199219 56.160156 70.199219 54.800781 C 70.992188 54.800781 71.785156 54.800781 72.601562 54.800781 C 73.082031 55.121094 72.9375 55.457031 72.9375 55.902344 C 72.941406 56.09375 72.941406 56.285156 72.941406 56.480469 C 72.941406 56.691406 72.941406 56.898438 72.941406 57.113281 C 72.941406 57.324219 72.941406 57.539062 72.941406 57.757812 C 72.941406 58.207031 72.941406 58.65625 72.9375 59.105469 C 72.9375 59.796875 72.9375 60.488281 72.941406 61.179688 C 72.941406 61.617188 72.941406 62.050781 72.941406 62.488281 C 72.941406 62.695312 72.941406 62.902344 72.941406 63.117188 C 72.941406 63.40625 72.941406 63.40625 72.9375 63.699219 C 72.9375 63.867188 72.9375 64.039062 72.9375 64.210938 C 72.898438 64.601562 72.898438 64.601562 72.601562 64.800781 C 71.796875 64.828125 71.003906 64.808594 70.199219 64.800781 C 70.140625 64.25 70.085938 63.699219 70.03125 63.148438 C 70.015625 62.996094 69.996094 62.839844 69.980469 62.679688 C 69.964844 62.527344 69.953125 62.378906 69.9375 62.222656 C 69.921875 62.082031 69.90625 61.945312 69.894531 61.804688 C 69.898438 61.398438 69.898438 61.398438 70.199219 60.601562 C 68.023438 60.601562 65.84375 60.601562 63.601562 60.601562 C 63.613281 61.90625 63.613281 61.90625 63.628906 63.214844 C 63.628906 63.375 63.628906 63.539062 63.628906 63.707031 C 63.632812 63.871094 63.632812 64.039062 63.632812 64.210938 C 63.601562 64.601562 63.601562 64.601562 63.300781 64.800781 C 62.507812 64.800781 61.714844 64.800781 60.898438 64.800781 C 60.898438 61.5 60.898438 58.199219 60.898438 54.800781 Z M 60.898438 54.800781 "/>
<path style=" stroke:none;fill-rule:nonzero;fill:rgb(0.392157%,0.392157%,0.392157%);fill-opacity:1;" d="M 55.632812 55.101562 C 56.921875 55.617188 57.945312 56.378906 58.800781 57.199219 C 58.800781 57.332031 58.800781 57.464844 58.800781 57.601562 C 58.097656 57.953125 57.597656 58.199219 56.699219 58.199219 C 55.835938 57.910156 55.273438 57.460938 54.601562 57 C 53.011719 56.648438 51.308594 56.597656 49.800781 57.101562 C 49.601562 57.199219 49.402344 57.296875 49.199219 57.398438 C 49.003906 57.398438 48.804688 57.398438 48.601562 57.398438 C 48.507812 57.558594 48.414062 57.714844 48.320312 57.875 C 48 58.398438 48 58.398438 47.699219 58.800781 C 47.535156 59.800781 47.53125 60.578125 48.226562 61.488281 C 49.425781 62.398438 50.296875 62.769531 52.144531 62.851562 C 53.359375 62.839844 54.164062 62.640625 55.199219 62.199219 C 55.402344 62.050781 55.609375 61.902344 55.820312 61.75 C 56.398438 61.398438 56.398438 61.398438 57.167969 61.425781 C 57.898438 61.601562 57.898438 61.601562 58.800781 62 C 58.390625 63.125 57.144531 63.742188 55.800781 64.398438 C 54.152344 64.972656 52.214844 64.949219 50.398438 64.800781 C 48.285156 64.339844 46.433594 63.542969 45.292969 62.253906 C 44.351562 60.859375 44.332031 59.148438 45.074219 57.710938 C 46.0625 56.375 47.257812 55.691406 49.199219 55 C 51.136719 54.570312 53.742188 54.539062 55.632812 55.101562 Z M 55.632812 55.101562 "/>
<path style=" stroke:none;fill-rule:nonzero;fill:rgb(0.392157%,0.392157%,0.392157%);fill-opacity:1;" d="M 40.949219 55.050781 C 41.683594 55.394531 42.128906 55.695312 42.601562 56.199219 C 42.105469 56.53125 41.609375 56.859375 41.101562 57.199219 C 40.894531 57.136719 40.691406 57.078125 40.480469 57.011719 C 39.480469 56.769531 38.558594 56.667969 37.5 56.601562 C 37.203125 56.699219 37.203125 56.699219 36.898438 56.800781 C 36.898438 57.195312 36.898438 57.59375 36.898438 58 C 37.09375 58.0625 37.285156 58.125 37.480469 58.191406 C 38.289062 58.457031 39.09375 58.726562 39.898438 59 C 40.105469 59.066406 40.3125 59.132812 40.523438 59.203125 C 41.847656 59.65625 42.574219 60.097656 43.199219 61 C 43.4375 62.003906 43.367188 62.765625 42.710938 63.6875 C 41.40625 64.628906 40.304688 64.839844 38.417969 64.886719 C 36.34375 64.851562 35.371094 64.449219 33.75 63.613281 C 33.300781 63.199219 33.300781 63.199219 33.300781 62.675781 C 33.601562 62.199219 33.601562 62.199219 34.164062 61.9375 C 34.800781 61.800781 34.800781 61.800781 35.699219 61.800781 C 35.917969 61.964844 36.132812 62.128906 36.355469 62.300781 C 37.234375 62.820312 37.363281 62.875 38.457031 62.886719 C 39.605469 62.878906 39.605469 62.878906 40.199219 62.398438 C 40.25 61.882812 40.25 61.882812 40.199219 61.398438 C 39.976562 61.324219 39.976562 61.324219 39.75 61.25 C 39.074219 61.023438 38.398438 60.792969 37.726562 60.5625 C 37.375 60.445312 37.375 60.445312 37.019531 60.328125 C 35.695312 59.871094 34.671875 59.484375 33.898438 58.601562 C 33.636719 57.640625 33.726562 56.710938 34.238281 55.800781 C 36.019531 54.53125 38.601562 54.492188 40.949219 55.050781 Z M 40.949219 55.050781 "/>
<path style=" stroke:none;fill-rule:nonzero;fill:rgb(0%,0%,0%);fill-opacity:1;" d="M 109.5 54.800781 C 110.390625 54.800781 111.28125 54.800781 112.199219 54.800781 C 112.199219 57.507812 112.199219 60.210938 112.199219 63 C 113.882812 63 115.566406 63 117.300781 63 C 117.300781 63.527344 117.300781 64.054688 117.300781 64.601562 C 116.785156 64.941406 116.109375 64.824219 115.40625 64.828125 C 115.082031 64.828125 114.761719 64.828125 114.429688 64.828125 C 114.089844 64.828125 113.75 64.824219 113.398438 64.824219 C 113.058594 64.824219 112.722656 64.828125 112.371094 64.828125 C 112.046875 64.828125 111.726562 64.828125 111.394531 64.828125 C 111.09375 64.828125 110.796875 64.824219 110.492188 64.824219 C 109.800781 64.800781 109.800781 64.800781 109.5 64.601562 C 109.472656 64.292969 109.464844 63.984375 109.464844 63.675781 C 109.464844 63.480469 109.464844 63.285156 109.464844 63.082031 C 109.46875 62.871094 109.46875 62.65625 109.46875 62.4375 C 109.472656 62.21875 109.472656 62.003906 109.472656 61.777344 C 109.472656 61.082031 109.476562 60.382812 109.480469 59.6875 C 109.484375 59.214844 109.484375 58.746094 109.484375 58.273438 C 109.488281 57.117188 109.492188 55.957031 109.5 54.800781 Z M 109.5 54.800781 "/>
<path style=" stroke:none;fill-rule:nonzero;fill:rgb(0.392157%,0.392157%,0.392157%);fill-opacity:1;" d="M 98.398438 66.398438 C 99.601562 66.601562 99.601562 66.601562 100.199219 67.199219 C 100.300781 66.9375 100.398438 66.671875 100.5 66.398438 C 100.796875 66.398438 101.09375 66.398438 101.398438 66.398438 C 101.398438 67.125 101.398438 67.851562 101.398438 68.601562 C 100.5 68.601562 100.5 68.601562 99.992188 68.300781 C 99.863281 68.199219 99.734375 68.101562 99.601562 68 C 99.402344 68.265625 99.203125 68.527344 99 68.800781 C 98.800781 68.734375 98.605469 68.667969 98.398438 68.601562 C 98.398438 67.875 98.398438 67.148438 98.398438 66.398438 Z M 98.398438 66.398438 "/>
<path style=" stroke:none;fill-rule:nonzero;fill:rgb(0.392157%,0.392157%,0.392157%);fill-opacity:1;" d="M 93.167969 66.25 C 93.898438 66.398438 93.898438 66.398438 94.5 66.800781 C 94.613281 67.488281 94.613281 67.488281 94.5 68.199219 C 93.992188 68.601562 93.992188 68.601562 93.300781 68.800781 C 92.511719 68.773438 92.511719 68.773438 91.800781 68.601562 C 91.199219 68 91.199219 68 91.257812 67.289062 C 91.546875 66.46875 91.851562 66.164062 93.167969 66.25 Z M 92.398438 66.800781 C 92.300781 67.195312 92.203125 67.59375 92.101562 68 C 92.683594 68.117188 92.683594 68.117188 93.300781 68.199219 C 93.6875 67.988281 93.6875 67.988281 93.617188 67.488281 C 93.613281 67.328125 93.605469 67.164062 93.601562 67 C 93.203125 66.933594 92.808594 66.867188 92.398438 66.800781 Z M 92.398438 66.800781 "/>
<path style=" stroke:none;fill-rule:nonzero;fill:rgb(0.392157%,0.392157%,0.392157%);fill-opacity:1;" d="M 54.898438 66.199219 C 56.925781 66.351562 56.925781 66.351562 57.601562 66.800781 C 57.710938 67.488281 57.710938 67.488281 57.601562 68.199219 C 57.09375 68.585938 57.09375 68.585938 56.398438 68.800781 C 55.574219 68.835938 55.574219 68.835938 54.898438 68.800781 C 54.578125 68.160156 54.617188 67.824219 54.730469 67.164062 C 54.761719 66.980469 54.792969 66.800781 54.824219 66.617188 C 54.847656 66.480469 54.875 66.339844 54.898438 66.199219 Z M 55.5 66.800781 C 55.5 67.261719 55.5 67.722656 55.5 68.199219 C 55.894531 68.132812 56.292969 68.066406 56.699219 68 C 56.789062 67.246094 56.789062 67.246094 56.398438 66.800781 C 56.101562 66.800781 55.804688 66.800781 55.5 66.800781 Z M 55.5 66.800781 "/>
<path style=" stroke:none;fill-rule:nonzero;fill:rgb(0.392157%,0.392157%,0.392157%);fill-opacity:1;" d="M 75 66.398438 C 75.542969 66.414062 75.542969 66.414062 76.199219 66.601562 C 76.742188 67.300781 77.101562 67.808594 77.101562 68.601562 C 76.804688 68.601562 76.507812 68.601562 76.199219 68.601562 C 76.199219 68.46875 76.199219 68.335938 76.199219 68.199219 C 75.507812 68.332031 74.8125 68.464844 74.101562 68.601562 C 74.300781 67.839844 74.617188 67.128906 75 66.398438 Z M 75 66.398438 "/>
<path style=" stroke:none;fill-rule:nonzero;fill:rgb(0.392157%,0.392157%,0.392157%);fill-opacity:1;" d="M 48.898438 66.199219 C 49.59375 66.265625 50.285156 66.332031 51 66.398438 C 51 66.53125 51 66.664062 51 66.800781 C 50.503906 66.800781 50.011719 66.800781 49.5 66.800781 C 49.5 66.933594 49.5 67.0625 49.5 67.199219 C 49.796875 67.199219 50.09375 67.199219 50.398438 67.199219 C 50.398438 67.398438 50.398438 67.597656 50.398438 67.800781 C 50.101562 67.800781 49.804688 67.800781 49.5 67.800781 C 49.5 67.933594 49.5 68.0625 49.5 68.199219 C 49.996094 68.199219 50.488281 68.199219 51 68.199219 C 51 68.398438 51 68.597656 51 68.800781 C 50.308594 68.800781 49.613281 68.800781 48.898438 68.800781 C 48.578125 68.160156 48.617188 67.824219 48.730469 67.164062 C 48.761719 66.980469 48.792969 66.800781 48.824219 66.617188 C 48.847656 66.480469 48.875 66.339844 48.898438 66.199219 Z M 48.898438 66.199219 "/>
<path style=" stroke:none;fill-rule:nonzero;fill:rgb(0.784314%,0.784314%,0.784314%);fill-opacity:1;" d="M 61.5 66.398438 C 61.699219 66.398438 61.894531 66.398438 62.101562 66.398438 C 62.199219 66.992188 62.296875 67.589844 62.398438 68.199219 C 62.695312 68.132812 62.992188 68.066406 63.300781 68 C 63.398438 67.472656 63.496094 66.945312 63.601562 66.398438 C 63.796875 66.398438 63.996094 66.398438 64.199219 66.398438 C 64.222656 66.726562 64.242188 67.050781 64.257812 67.375 C 64.265625 67.554688 64.277344 67.738281 64.289062 67.921875 C 64.257812 68.082031 64.230469 68.238281 64.199219 68.398438 C 63.300781 68.800781 63.300781 68.800781 62.511719 68.738281 C 61.800781 68.601562 61.800781 68.601562 61.5 68.398438 C 61.476562 68.0625 61.476562 67.726562 61.480469 67.386719 C 61.484375 67.203125 61.488281 67.019531 61.488281 66.832031 C 61.492188 66.6875 61.496094 66.546875 61.5 66.398438 Z M 61.5 66.398438 "/>
<path style=" stroke:none;fill-rule:nonzero;fill:rgb(0.392157%,0.392157%,0.392157%);fill-opacity:1;" d="M 69.976562 66.261719 C 70.234375 66.332031 70.234375 66.332031 70.5 66.398438 C 70.5 66.53125 70.5 66.664062 70.5 66.800781 C 70.308594 66.820312 70.117188 66.839844 69.917969 66.863281 C 69.714844 66.90625 69.511719 66.953125 69.300781 67 C 69.199219 67.199219 69.101562 67.394531 69 67.601562 C 69.097656 67.730469 69.199219 67.863281 69.300781 68 C 69.90625 68.128906 69.90625 68.128906 70.5 68.199219 C 70.402344 68.398438 70.300781 68.597656 70.199219 68.800781 C 69.320312 68.726562 69.320312 68.726562 68.398438 68.601562 C 67.9375 67.984375 68.011719 67.476562 68.101562 66.800781 C 68.734375 66.316406 69.011719 66.171875 69.976562 66.261719 Z M 69.976562 66.261719 "/>
<path style=" stroke:none;fill-rule:nonzero;fill:rgb(0.392157%,0.392157%,0.392157%);fill-opacity:1;" d="M 80.398438 66.398438 C 81.289062 66.398438 82.183594 66.398438 83.101562 66.398438 C 83.101562 66.53125 83.101562 66.664062 83.101562 66.800781 C 82.804688 66.800781 82.507812 66.800781 82.199219 66.800781 C 82.199219 67.394531 82.199219 67.988281 82.199219 68.601562 C 81.902344 68.601562 81.605469 68.601562 81.300781 68.601562 C 81.300781 68.007812 81.300781 67.410156 81.300781 66.800781 C 81.003906 66.800781 80.707031 66.800781 80.398438 66.800781 C 80.398438 66.667969 80.398438 66.535156 80.398438 66.398438 Z M 80.398438 66.398438 "/>
<path style=" stroke:none;fill-rule:nonzero;fill:rgb(0.392157%,0.392157%,0.392157%);fill-opacity:1;" d="M 86.699219 66.398438 C 86.996094 66.398438 87.292969 66.398438 87.601562 66.398438 C 87.601562 67.125 87.601562 67.851562 87.601562 68.601562 C 87.304688 68.601562 87.007812 68.601562 86.699219 68.601562 C 86.699219 67.875 86.699219 67.148438 86.699219 66.398438 Z M 86.699219 66.398438 "/>
<path style=" stroke:none;fill-rule:nonzero;fill:rgb(0%,0%,0%);fill-opacity:1;" d="M 75.300781 68.398438 C 75.898438 68.601562 75.898438 68.601562 75.898438 68.601562 Z M 75.300781 68.398438 "/>
</g>
</svg>
